<?xml version="1.0" encoding="UTF-8"?>
<svg id="Layer_2" data-name="Layer 2" xmlns="http://www.w3.org/2000/svg" viewBox="0 0 249.79 257.24">
  <defs>
    <style>
      .cls-1 {
        fill: #767576;
      }
    </style>
  </defs>
  <g id="Layer_6" data-name="Layer 6">
    <g>
      <g>
        <path class="cls-1" d="M77.06,84.74l-.37-.73c1.14-1.5,3.06-.42,4.4-.44,3.68-.05,9.07.31,12.46,0,6.63-.62,5.35-11.1,9.36-12.55s5.08,7.67,5.67,10.41c.84,3.9,1.06,7.94,2.37,11.74,1.37-.14,1.85-.74,2.26-1.95,1.16-3.45,1.21-9.32,1.87-13.15.56-3.23,2.55-15.27,5.4-16.58,1.71-.78,2.5.57,3.22,1.89,3.69,6.69,3.22,20.78,5.23,28.48.12.44,1,2.4,1.25,2.41.59-.49.97-.98,1.19-1.73,1.2-4.01,1.45-9.23,2.39-13.37.49-2.14,1.85-8.46,5.28-6.03,2.08,1.48,4.15,13.28,5.84,13.78,3.47-.43,2.18-6.02,5.82-6.24,2.21-.13,3.95,2.29,5.51,2.58,3.11.58,8.68.08,12.43.41.12.01,2.56-.6,1.28.52-.46.4-1.06.5-1.64.56-2.5.28-9.69.34-12.12.02-.13-.02-2.16-.87-2.34-.96-1.21-.6-1.79-2.15-3.79-1.65-1.41.36-1.95,7.22-5.49,6.18-2.84-.84-4.04-9.54-5.33-12.27-2.14-4.52-3.51,1.58-3.99,3.83-.57,2.66-1.72,13.97-3.65,15.12-.67.4-1.67.44-2.43.29-.91-.3-1.39-2.66-1.6-3.54-1.89-7.78-1.55-16.58-3.51-24.33s-4.16-5.41-5.59.79c-1.75,7.55-1.79,16.23-3.55,23.56-1,4.16-3.4,5.27-6.06,1.48-.59-4.89-1.29-10.05-2.38-14.84-.24-1.06-1.5-7.67-3.38-6.19-1.36,1.07-2.69,7.54-4.25,9.7-.63.87-2.78,2.8-3.8,2.8h-17.95Z"/>
        <path class="cls-1" d="M237.87,134.67l-.22,1.15-22.68-.31c-2.13.5-5.84-.54-7.75.89-.73.55-.98,2.45-1.55,3.43-1.43,2.45-3.13,3.41-5.93,3.65-4.61.39-10.23-.04-14.97-.03-1.62,0-3.43.46-5.16.01l.63-1.44,19.11.08c4.79.77,5.65-7.22,9.21-7.81,1.99-.33,6.45-.24,8.73-.26,5.41-.05,11.96-.07,17.32.22,1.09.06,2.13.52,3.24.4Z"/>
        <path class="cls-1" d="M56.44,143.48c-.83-.1-2.33-.65-3.07-1.15-2.41-1.64-1.89-4.34-3.63-5.95-1.92-1.77-7.47-.55-10.16-.53-1.41,0-2.78-.03-4.2-.02-7.12.04-14.28-.15-21.42-.07-1.73-1.22,2.32-1.42,3.01-1.46,10.36-.59,21.3.4,31.73.06,3.31.75,3.91,6.17,6.25,7.16,3.51,1.49,9-.38,12.8.81.16.36-.34,1.15-.57,1.15-3.24,0-7.67.37-10.73,0Z"/>
        <path class="cls-1" d="M44.75,141.95l-.23,1.18c-.49.16-.98.3-1.49.35-4.61.41-11.35.26-16.1.17-.85-.02-4.64.03-4.22-.93.23-.15.66-.77.77-.77h21.27Z"/>
        <path class="cls-1" d="M212.96,141.95h14.37l.57.58-.57.95h-13.79c-.41,0-.73-1.09-.57-1.53Z"/>
        <path class="cls-1" d="M80.77,134.67v1.53c-3.42-.23-7.19.21-10.56.02-1.37-.08-3.79-.02-4-1.55h14.56Z"/>
        <path class="cls-1" d="M184.8,134.67c.32.09.7.74.57,1.15-5.12.08-10.28.14-15.33.21l-.38-1.36h15.14Z"/>
        <path class="cls-1" d="M198.4,135.06l-.42,1.1-6.09.04.37-1.35c.59-.4,5.81-.24,6.14.21Z"/>
        <path class="cls-1" d="M57.4,134.67c.66.02,3.73-.38,3.45.95-.2.95-4.19,1.07-3.45-.95Z"/>
      </g>
      <g>
        <path d="M236.81,62.69l-.61-2.31c6.4-4.77-.37-10.87-6.01-6.03-3.93,3.37-.76,6.74,3.39,7.16.23.86.82,1.84-.14,2.4-1.63.95-5.74,1.36-7.66,2.26-1.56-3.14,2.21-3.86,1.83-6.69-1.03-7.67-15.78.11-8.43,4.63,1.78,1.09,3.75,0,4.06,2.5-.15.7-7.28,2.87-8.47,3.02-1.31-2.7,1.25-3.03,1.55-4.9,1.27-7.81-11.73-4.58-9.91,1.14.09.28,1.11,1.7,1.35,1.88,1.08.78,3.25.55,3.78,1.01.17.15.69,1.69.65,1.93-.19,1.02-6.85,2.64-8.14,2.9l-.63-2.48c5.13-4.12-.09-9.43-5.5-6.21-5.06,3-2.66,7.99,2.64,7.61l.22,2.18-7.85,2.48c-1.91-1.94.14-2.55.87-4.1,2.27-4.85-3.58-6.78-7.47-4.32-4.69,2.96-1.87,7.59,2.88,7.56l.33,2.11c-2.27,1.13-5.49,1.73-8.38,2.72l.28-.12c-1.31-2.7,1.25-3.03,1.55-4.9,1.27-7.81-11.73-4.58-9.91,1.14.09.28,1.11,1.7,1.35,1.88,1.08.78,3.25.55,3.78,1.01.16.14.67,1.63.65,1.91-1.58.77-2.91,1.77-3.71,3.22-.53.96-.76,2.2-1.26,3.15-1.29,2.43-4.91,4.72-7.2,6.34-30.34,21.44-63.82,40.76-95.14,61-7.21,4.66-15.95,9.71-22.66,14.8-2.66,2.02-2.87,2.86-1.23,5.89,2.45,4.51,8.68,13.79,12.06,17.54,1.73,1.92,2.96,2.03,5.3.88,30.9-21.95,61.56-44.23,92.35-66.31,9.51-6.82,20.48-15.8,30.35-21.6,3.59-2.11,8.32-3.82,12.33-4.99,9.64-2.82,19.75-1.87,26.32-10.83,2.14-2.92,3.67-8.23,8.08-8.32,3.61-.07,5.51,1.16,9.3-.75,10.89-5.48,6.17-24.88-6.93-19.37ZM65.42,187.64c-2.28-2.94-4.78-6.69-6.87-9.82-.69-1.03-4.3-6.38-4.34-7.02-.11-1.63.98-1.06,1.71-.11,4.52,5.9,8.1,12.62,12.74,18.46l.03,1.35c-.81.56-2.82-2.26-3.28-2.86ZM75.16,183.88l-12.29-17.95c-.45-.9.49-1.93,1.33-1.15l12.53,18.18c.26,1.19-.57,1.74-1.57.92ZM85.37,177.57c-.17.23-1.68.52-1.89-.13l-12.1-17.79c-.29-.86,1-1.42,1.55-.96l12.09,17.53c.21.29.53,1.1.35,1.36ZM93.35,171.57l-12.02-16.85c-.59-.63-.36-1.75.49-1.96.46-.12.79.07,1.05.43l11.52,17.15c.29.75-.48,1-1.04,1.24ZM103.33,164.22l-1.22-.69-11.24-16.8,1.28-.86,12.07,17.35-.89,1ZM104.45,152.43c-2.28,2.77-4.94-2.3-1.52-2.81,1.1-.17,2.49,1.64,1.52,2.81ZM115,156.67l-1.43-.18c-2.87-5.16-7.4-9.84-10.24-14.94-.36-.65-1.51-2.24-.11-2.66.44-.13.81.09,1.07.45l10.96,16.13-.24,1.21ZM125.2,148.54c-.94-.07-9.55-13.66-11.01-15.36-.53-.68.37-1.48,1-1.53.5-.04,1.3,1.33,1.62,1.75,2.34,3.13,7.62,10.03,9.14,13.22.41.86.43,2-.74,1.91ZM127.49,137.53c-1.66,1.66-4.57-1.39-2.31-2.78,2.16-1.32,3.63,1.45,2.31,2.78ZM136.86,139.81l-10.31-14.9c-.6-.67,1.33-1.65,1.62-1.45l10.28,15.4c.51,1.16-.72,1.73-1.59.94ZM150.87,131.17l-1.1-.17-10.51-15.84c.05-.27.54-.73.8-.8.46-.12.79.07,1.05.43l10.34,15.7-.58.68ZM152.59,119.99c-2.66.5-3.31-3.49-.54-3.73,2.5-.22,2.35,3.39.54,3.73ZM164.24,121.16c-.88-.07-8.68-12.86-10.07-14.42-.39-.54.12-1.37.69-1.52.38-.1.66-.05.88.28l9.62,14.34c.2.6-.63,1.35-1.12,1.31ZM178.94,110.48l-9.82-14.91c-.03-.53.86-1.12,1.27-.94l10.21,14.65c.24.84-.93,1.63-1.67,1.2ZM184.91,88.95c-3.24.53-3.57-3.86-.85-4.36,2.88-.53,3.42,3.94.85,4.36ZM195.26,85.72c-2.68.08-3.16-4.04-.5-4.59,3.42-.7,3.38,4.5.5,4.59ZM205.99,82.02c-2.61.17-3.76-4.35-.53-4.65,3.24-.31,3.24,4.48.53,4.65ZM215.64,78.07c-2.65-2.02.94-5.75,3.05-3.52,1.48,1.57-.46,5.49-3.05,3.52ZM227.25,74.64c-1.71-.57-1.86-3.78.25-4.21,3.92-.8,3.63,5.5-.25,4.21ZM237,71.39c-1.71-.57-1.86-3.78.25-4.21,3.92-.8,3.63,5.5-.25,4.21Z"/>
        <path d="M184.13,193.59c1.92,1.04,3.52,1.35,5.14-.41,2.87-5.6,8.61-11.26,11.27-16.75.8-1.64.93-3.24-.37-4.71l-51.81-32.39-21.11,14.5c11.79,8.27,23.72,16.35,35.55,24.58,6.45,4.49,14.73,11.61,21.33,15.19ZM194.79,171.29c.32.41.07.78-.1,1.18-1.15,2.72-8.58,13.82-10.64,16.12-.79.88-2.18,1.81-1.77-.2l11.42-17.39,1.1.29ZM188.93,167.72l-.22.96c-3.92,5-6.86,11.48-10.64,16.45-.69.9-1.34.56-1.72-.44l11.49-17.77,1.08.81ZM181.4,162.93l.49,1.1-11.08,16.64-1.03-.28c-.13-.43-.02-.82.15-1.22,1.21-2.92,6.28-9.74,8.32-12.77.5-.73,2.23-3.94,3.15-3.47ZM173.09,168.12c2.01,1.58-1.01,4.1-2.31,2.78-1.39-1.41.5-4.21,2.31-2.78ZM138.08,158.37l9.96-15.4,1.42.61c.38.86-8.98,13.9-10.12,15.72l-1.26-.93ZM148.16,154.93c-2.06.1-2.33-3.25-.29-3.34,2.12-.09,2.55,3.23.29,3.34ZM146.77,164.54l-.49-1.1,10.75-15.74.93.62v.61c-3.63,4.3-6.23,10.63-9.81,14.78-.34.39-.76,1.19-1.39.83ZM155.12,170.35l-.48-1.07,10.86-16.23.75.85-10.08,15.95-1.06.51ZM173.73,158.1c.47-.08,1.28.75.91,1.21l-10.42,15.74c-.64,1.03-1.79.87-1.71-.43l11.22-16.53Z"/>
        <path d="M7.88,77.02l.63-.02c.43.12,4.57,3.79,4.65,4.17.36,1.83-1.53,1.56-2.39,1.9-5.71,2.29-.56,9.14,2.94,6.4,2.57-2.01-.05-4.3,2.51-5.93l5.5,4.24c-.2,2.64-2.4,1.07-4.05,2.5-3.06,2.65,1.19,7.6,4.37,5.62,2.83-1.76.26-5.42,2.11-5.76.3-.05,4.64,3.02,5.01,3.41,1.92,2.06-2.36,2.57-3.17,3.14-5.13,3.64,4.45,9.77,5.4,3.16.14-.94-.43-4.51,1.86-3.17.61.36,4.6,3.49,4.53,3.9-1.04,2.64-3.54,1.03-4.84,3.05-2.56,4,6.07,8.76,6.7,2.58.1-1-.93-4.4,1.49-3.25,1.06.51,4.36,2.73,4.22,3.94-.21,1.86-2.06,1.46-3.26,2.11-3.67,1.99.05,6.9,3.41,6.25.99-.19,2.28-2.07,2.37-3.02.08-.9-1.36-3.11.2-3.57.65-.19,4.52,3.37,6.01,3.69,2.71.57,3.8-1.05,5.92-1.2,3.82-.27,10.91,4.16,14.29,6.18,8.91,5.31,17.37,11.44,26.32,16.7l19.99-12.64-.52-.73c-13.99-9.08-28.61-17.27-42.58-26.36-4.99-3.25-9.82-5.77-11.76-11.85-.79-2.49-.35-5.9-2.64-7.43-2.46-1.64-12.74-4.44-16.09-5.31-5.23-1.36-15.96-2.34-19.58-5.92-1.41-1.4-2.53-3.94-3.89-5.39-8.61-9.15-26.77,2.48-19.85,13.71.36.59,1.93,2.21,1.89,2.57-.68,3.19-2.86.79-4.76,3.12-2.77,3.39,2.58,7.46,5.06,4.74,1.57-1.73-.13-4.09,2.04-5.54ZM99.31,129.14c2.05-4.31,6.07-8.42,8.08-12.87.56-.28,1.91.22,1.73.92l-8.54,13.2c-.89.79-1.91.1-1.27-1.25ZM91.14,106.79c.49-.61,1.11-.09,1.72,0,.08.35-.04.61-.17.92-.84,2.09-6.02,9.91-7.57,11.95-.79,1.04-2.03,1.28-2.03-.13,0-1.19,7.22-10.73,8.04-12.76ZM74.13,96.4c.4-.52,1.56-.32,1.97.08.2.2.37.74.36,1.02-.08,1.97-6.6,9.81-7.38,12.42-.73,1.07-2.01.85-2.22-.46l7.27-13.07ZM52.79,101.51c3.6-.83,5.22,3.49,2.38,4.89-3.91,1.93-5.84-4.1-2.38-4.89ZM46.52,95.2c3.81-.42,3.3,6.14-1.02,5.29-2.47-.48-2.48-4.9,1.02-5.29ZM37.05,88.91c3.77-1.12,5.38,3.42,2.38,4.9-4.04,2-5.17-4.07-2.38-4.9ZM32.41,86.16c-.33,1.75-3.15,2.11-4.32,1.03-.3-.27-.7-1.52-.73-1.97-.3-4.25,6.01-4.09,5.05.94ZM20.69,75.69c4.52-1.02,4.77,5.34.85,5.6-2.78.18-3.88-4.91-.85-5.6ZM12.82,69.69c4.09-.83,4.42,5.45.5,5.51-3.12.05-3.17-4.97-.5-5.51Z"/>
        <path d="M54.73,104.85c1.23-1.94-2.8-2.82-2.11-.49.28.94,1.77,1.02,2.11.49Z"/>
        <path d="M22.59,79.32c1.07-1.05-.67-3.12-1.84-1.68-1.03,1.28.71,2.78,1.84,1.68Z"/>
        <path d="M38.51,92.59c1.32-.44.76-2.67-.84-2.14-1.24.41-.7,2.65.84,2.14Z"/>
        <path d="M31.03,84.91c-.05-1.24-1.67-1.3-2.03-.74-1.02,1.59,2.13,3.47,2.03.74Z"/>
        <path d="M14.35,73.13c.39-.53.06-1.49-.5-1.77l-1.75.48.54,1.53,1.71-.24Z"/>
        <path d="M47.49,97.07c-.57-.89-2.93.05-2.01,1.54.83,1.35,2.81-.29,2.01-1.54Z"/>
        <g>
          <path d="M67.96,48.16c.77.26,10.36-2.32,10.67-2.78.83-1.22-1.98-2.72-2.31-4.34-.22-1.08-.19-4.47.56-5.28.49-.53,2.82-1.15,3.64-1.4,1.18-.35,6.66-1.8,7.37-1.45.21.11,2.59,3.61,2.69,3.93.21.71.25,1.59.08,2.31-.2.83-1.95,2.33.24,2.74.98.18,8.95-1.68,10.47-2.1,4.73-1.3.88-2.28-.9-4.02-2.67-2.62-7.28-10.78-9.56-14.36-1.39-2.18-8.16-12.13-8.36-13.69-.12-.91.2-1.57.26-2.43l-1.28-.79c-3.48,1.21-7.98,1.45-11.34,2.86-3.15,1.33.58,2.66.95,3.91.19.66.1,2.02.08,2.78-.11,3.04-.76,6.37-.95,9.43-.31,4.85-.08,16.99-1.51,20.84-.41,1.11-2.21,2.81-.8,3.83ZM77.52,16.72c1.14,1.6,2.44,3.21,3.47,4.87.53.86,3.22,5.2,2.79,5.8l-6.89,1.92.63-12.59Z"/>
          <path d="M196.36,48.53c-4.65.56-7.68-2.2-9.67-6.08-.96-1.87-1.83-7.07-4.68-5.04-.31,1.89-4.26,8.61-4.01,9.97.27,1.47,2.54.54,3.26.56,1.11.03,4.51,3.98,6.02,4.94,5.38,3.41,13.64,4.85,18.56-.06,3.55-3.53,4.18-9.17,2.06-13.64-1.68-3.53-8.77-9.37-9.17-12.25-.27-1.94.73-3.6,2.69-3.88,3.93-.56,7.48,3.03,9,6.36.65,1.41,1.09,5.78,3.27,4.33.38-.25,3.76-6.04,3.99-6.71,1.1-3.27-.83-1.96-2.27-2.6-.62-.27-2.66-2.78-3.46-3.46-3.42-2.91-7.67-5.84-12.4-5.47-8.27.65-12.59,9.34-8.7,16.5,1.88,3.47,7.54,7.46,8.58,10.62.78,2.36-.39,5.58-3.06,5.9Z"/>
          <path d="M106.78,28.85c1.17,13.54,23.82,14.1,28.62,4.04,2.71-5.67.86-20.01,1.61-27.04.07-.69.27-1.33.57-1.95.37-.76,2.86-2.99.85-3.56h-10.55c-.54,1.53,1.27,2.5,1.74,4.08.49,1.66.12,2.79.13,4.25.06,4.7.75,18.69-1.07,22.23-2.01,3.93-9.87,4.11-12.2.2-1.73-2.89-.94-8.04-.98-11.26-.04-3.28-.74-13.47.27-16.03.46-1.17,1.82-1.96,1.37-3.43-.32-.5-4.61-.4-5.47-.35-1.66.09-4.72.34-6.29.63-2.7.51.51,3.25.94,4.4,1.67,4.5-.04,17.99.46,23.78Z"/>
          <path d="M38.01,43.16c1.44,2.71,6.52,11.58,6.47,14.02-.03,1.55-1.37,4.28,1.78,3.06,1.82-.71,4.93-3.1,6.8-4.22.72-.43,2.14-.74,2.64-1.29,1.34-1.5-2.1-2.2-3.16-3.1-.79-.67-4.94-7.63-4.92-8.3.02-.9,3.35-2.38,4.25-2.98,5.53-3.67,10.25-7.48,7.72-14.97-3.21-9.49-13.22-11.12-21-5.87l-11.77,7.43-.16,1.46c1.46.54,2.62.34,3.78,1.57,2.06,2.17,5.95,10.13,7.58,13.2ZM45.02,23.4c4.03-.4,8.11,5.56,6.65,9.19-.9,2.24-5.04,3.96-7.06,5.15l-6.08-10.74c.2-1.09,5.32-3.48,6.49-3.6Z"/>
          <path d="M166.75,44.12c.27-.01.46-.15.67-.3.42-.31,2.95-6.88,3.2-7.84,1.29-5.02-3.22-.64-4.95.11-4.19,1.83-8.01-.29-12.26-.82l5.35-26.56c1.97-4.77,7.03-4.26-1.02-6.26-2.74-.68-5.61-1.27-8.45-1.16.31,2.67,1.54,3.3,1.18,6.37-.72,6.17-3.42,19.69-5.36,25.49-.29.87-.96,2.17-1.53,2.87-.63.77-2.5,1.4-1.69,2.73.66,1.09,22.03,4.46,24.87,5.35Z"/>
          <path d="M181.88,17.68c4.05-3.62,3.5-11.34-2.77-10.32-3.31.54-4.58,4.12-3.02,6.96.3.54,1.22,1,1.17,1.56-.17,1.93-4.84,2.18-3.9,3.99,1.11,2.14,7.15-.97,8.52-2.2Z"/>
        </g>
        <g>
          <path d="M200.86,235.1c-3.35-5.83-5.34-13.53-8.91-19.42-.64-1.06,1.05-4.35-.67-4.66-.59-.11-8.07,3.34-8.27,3.92-.3,1.6,1.72,1.94,2.59,3.02.5.62,3.11,5.92,3.02,6.34l-7.03,3.63c-.69-.16-3.32-6.94-3.34-8-.01-.98,1.07-3.39-1.25-2.86-1.13.26-7.25,3.25-7.51,4.18-.1.37-.13.71.1,1.04,2.31.85,2.72,2.13,3.69,4.19,2.54,5.44,4.3,11.49,7.04,16.89l.44,4.6c.66.48,8.44-2.76,8.54-3.21.29-1.33-1.83-2.06-2.6-3.36-.49-.82-3.27-7.97-3.04-8.35,1.34-.54,6.08-3.65,7.2-3.06.38.2,3.77,7.06,3.94,7.72.46,1.77-1.14,4.61,1.8,4.04,1-.2,6.94-3.2,7.13-3.92.31-1.14-2.02-1.25-2.86-2.72Z"/>
          <path d="M130.19,244.16c3.88-2.68,5.3-5.47,4.55-10.3-1.33-8.56-13.1-6.79-19.3-6.83-.83,0-1.87-.62-2.59.06-.89.84.6,1.83.93,2.53,1.09,2.29.26,3.33.24,5.4-.06,5.15.57,11.79.01,16.7-.23,2.08-1.9,3.39-1.57,5.51h9.29c1.73,0-1.1-3.41-1.1-3.62v-8.34c.98.1,2.47-.35,3.17.45,1.48,1.94,3.02,9.77,4.53,10.9,1.06.79,7.51.57,7.91,0,.67-.94-1.77-3.14-2.44-4.22-.57-.93-3.69-7.67-3.63-8.25ZM121,240.19l-.22-8.16c3.74-.96,7.63-.31,7.7,4.3.06,4.28-4.37,4.36-7.48,3.85Z"/>
          <path d="M202.08,202.83c-9.33,5.91-3.29,17.54,2.73,23.44,5.08,4.98,10.83,5.77,16.58,1.22,7.04-5.57,4.74-11.91.12-18.08-5.12-6.84-10.81-12.04-19.44-6.58ZM219.47,220.84c-.23,2.12-2.97,4.22-5.09,3.91-3.69-.54-9.63-9.27-10.64-12.67-.68-2.29.7-4.96,3.08-5.45,2.9-.6,4.93,1.62,6.69,3.56,2.03,2.23,6.3,7.65,5.97,10.66Z"/>
          <path d="M55.5,209.84c-.31-.41-3.18-2.37-3.83-2.79-1.1-.7-2.13-1.67-3.44-1.44-.05.77.1,1.57-.03,2.34-.3,1.84-8.55,13.96-10.2,15.62-1.64,1.65-3.86,1.74-5.81.45-2.4-1.58-1.76-3.78-.58-5.9,1.37-2.47,8.18-11.63,10.15-13.46,1.07-.99,2.64-.62,3.02-2.05.09-1.04-5.65-5.63-6.54-5.77-1.82-.28-1.21,2.23-1.36,3.25-2.98,5.88-13.83,14.29-12.75,21.28.75,4.89,6.81,9.53,11.67,9.45,8.13-.13,11.95-12.41,16.53-17.49,1.05-1.16,4.25-2.09,3.16-3.49Z"/>
          <path d="M25.21,204.58c-.18-.72-4.8-6.54-5.46-6.54-2.1.54-.57,2.92-.94,4.08-.33,1.03-2.93,3.41-4.09,3.51-3.96.34-5.01-4.67-2.99-7.42,2.84-3.86,14.02-13.06,16.53-4.58.75,2.53-.44,4.37-.17,6.13.42,2.77,4.44-.9,5.37-1.86.64-.66,3.13-3.29,1.89-4.12-2.24.13-2.62-2.31-3.66-3.89-4.99-7.59-9.45-8.07-17.11-3.3-7.97,4.96-15.95,15.47-5.29,22.55.89.59,3.85,1.68,3.96,1.86.48.74-.91,3.69,1.74,3.42,1.2-.12,3.96-3.3,5.03-4.29,1.29-1.19,4.04-3.34,4.94-4.67.22-.33.36-.43.25-.88Z"/>
          <path d="M103.65,231.26c-.03-.73-.13-1.86,0-2.51.16-.83,1.27-1.16.92-2.17-.19-.55-2.15-.81-2.81-.98-.99-.26-6.88-1.53-7.36-1.39-.95.3-.01,2.91-.45,4.3-.85,2.68-9.09,18.79-10.77,20.7-.76.86-3.58,2.26-.84,3.05.89.26,6.43,1.34,6.93,1.17,1.06-.35.19-2.13.18-2.96-.02-1.14.9-3.91,1.91-4.42.68-.34,6.85.87,7.39,1.43.65,1.06.69,3.28.34,4.42-.3.98-2.28,1.87-1.61,2.83l9.1,2.16.52-.74c-.52-1.25-.98-2.48-1.22-3.83-1.04-5.79-1.98-15.15-2.24-21.06ZM93.26,241.81c-.33-.29,3.29-7.28,3.75-8.04.17-.28-.16-.63.66-.45l.63,9.13-5.03-.63Z"/>
          <path d="M237.26,206.89c-.47-.2-5.11-4.24-5.11-4.59,2.87-3.58,6.09-6.49,5.22-11.58-.69-4-6.61-8.8-10.68-8.66-4.87.17-9.66,6.35-12.35,10.03-.68.93-3.02,3.65-.96,4.06.97.19,1.54.03,2.67.48,2.1.83,4.81,4.35,6.61,5.98,1.72,1.57,10.03,8.53,10.56,9.91.34.89.13,3.5,1.52,3.11.48-.13,6.79-6.56,6.83-7.06-.19-2.25-2.63-.98-4.29-1.69ZM231.78,194.12c-.16,1.8-2.04,3.72-3.36,4.86l-7.65-6.15c-.26-1.06,3.47-4.23,4.62-4.46,2.95-.6,6.67,2.77,6.39,5.75Z"/>
          <path d="M165.98,235.04c-2.73-.86-13.05-.96-9.91-5.81,1.62-2.51,5.23-1.58,7.5-.6,1.04.45,2.84,2.21,3.69,1.08.8-1.06-.95-7.84-2.11-8.04l-1.56,1.57c-6.62-1.79-14.95,1.53-13.9,9.51.55,4.2,2.65,5.91,6.53,7.01,2.15.61,7.03.9,8.6,1.79.46.26,1.29,1.54,1.41,2.05,1.06,4.64-4.53,5.54-7.92,4.14-1.5-.61-4.8-4.47-6.04-2.48-.18.3,1.1,6.05,1.33,6.87.34,1.22.47,2.8,2.11,2.2.42-.15.44-.67.61-.79,1.13-.78,5.15.11,6.99-.1,10.24-1.15,12.84-15.22,2.68-18.42Z"/>
          <path d="M84.39,227.86c.52.74.95,2.94,2.07,2.6.69-.21,2.6-6.31,2.37-7.02l-18.7-6.52c-.29,0-.46.12-.63.33-.19.24-2.1,4.59-2.2,5.03-.15.65-.34,1.26,0,1.9.38.52.6.2,1.02.06,2.36-.81,3.13-2.03,6.05-.68.1.34.03.69,0,1.03-.23,2.05-5.67,17.6-6.76,19.07-.79,1.07-3.53,2.13-1.83,3.45.85.66,8.41,3.09,8.94,2.55.17-1.61-1.1-2.81-.55-4.49l6.08-18.79c.92-1.42,3.42.37,4.18,1.45Z"/>
          <path d="M66.84,216.46c.07-.4-.14-.65-.32-.96-.38-.64-6.65-4.15-7.44-4.23-.51-.05-1.15-.1-1.35.51-.33,1.01.54,1.95.58,2.81.06,1.3-3.67,8.22-4.54,9.9-.99,1.9-4.75,9.38-5.82,10.47-.55.56-1.58.63-2.08,1.16-1.68,1.8,1.12,2.75,2.48,3.53.87.5,5.2,2.83,5.88,2.15.25-1.1-.37-2.27-.31-3.27.1-1.6,9.32-19.41,10.68-20.51.75-.61,2.17-.76,2.24-1.57Z"/>
        </g>
      </g>
    </g>
  </g>
</svg>